name analog
datacolumns 19
datarows 70
range 0.47950000000000004 0.514
endheader
time	ground_force_vx	ground_force_vy	ground_force_vz	ground_force_px	ground_force_py	ground_force_pz	l_ground_force_vx	l_ground_force_vy	l_ground_force_vz	l_ground_force_px	l_ground_force_py	l_ground_force_pz	ground_torque_x	ground_torque_y	ground_torque_z	l_ground_torque_x	l_ground_torque_y	l_ground_torque_z
0.47950000000000004	-0.0	-0.0	-0.0	-0.0	-0.0	-0.0	-8.342018127441406	-5.308762550354004	-767.582275390625	-0.0	-0.0	-0.0	-0.0	-0.0	-0.0	233577.296875	35683.734375	-2375.115478515625
0.48	-0.0	-0.0	-0.0	-0.0	-0.0	-0.0	-8.237030029296875	-5.680107116699219	-769.7991333007812	-0.0	-0.0	-0.0	-0.0	-0.0	-0.0	233551.453125	35811.61328125	-2238.9111328125
0.4805	-0.0	-0.0	-0.0	-0.0	-0.0	-0.0	-8.27232837677002	-5.611977577209473	-769.8394165039062	-0.0	-0.0	-0.0	-0.0	-0.0	-0.0	233535.265625	35910.109375	-2321.620361328125
0.481	-0.0	-0.0	-0.0	-0.0	-0.0	-0.0	-8.222718238830566	-5.853039264678955	-769.1270751953125	-0.0	-0.0	-0.0	-0.0	-0.0	-0.0	233243.40625	35861.08203125	-2314.295166015625
0.4815	-0.0	-0.0	-0.0	-0.0	-0.0	-0.0	-8.188539505004883	-6.048262119293213	-768.496337890625	-0.0	-0.0	-0.0	-0.0	-0.0	-0.0	232530.046875	35995.97265625	-2356.511474609375
0.482	-0.0	-0.0	-0.0	-0.0	-0.0	-0.0	-7.800032615661621	-5.699992656707764	-768.5892944335938	-0.0	-0.0	-0.0	-0.0	-0.0	-0.0	232185.890625	35848.44140625	-2236.490234375
0.4825	-0.0	-0.0	-0.0	-0.0	-0.0	-0.0	-7.240692615509033	-5.856464862823486	-766.621337890625	-0.0	-0.0	-0.0	-0.0	-0.0	-0.0	231515.3125	35621.98046875	-2109.494384765625
0.483	-0.0	-0.0	-0.0	-0.0	-0.0	-0.0	-6.506936073303223	-5.846768379211426	-766.306396484375	-0.0	-0.0	-0.0	-0.0	-0.0	-0.0	230697.09375	35577.75	-1860.093994140625
0.4835	-0.0	-0.0	-0.0	-0.0	-0.0	-0.0	-5.803903102874756	-6.161845207214356	-763.4686889648438	-0.0	-0.0	-0.0	-0.0	-0.0	-0.0	229909.84375	35480.20703125	-1662.75244140625
0.484	-0.0	-0.0	-0.0	-0.0	-0.0	-0.0	-5.009416103363037	-6.494374752044678	-762.8143310546875	-0.0	-0.0	-0.0	-0.0	-0.0	-0.0	229033.265625	35370.9296875	-1479.622314453125
0.4845	-0.0	-0.0	-0.0	-0.0	-0.0	-0.0	-4.281519412994385	-6.727844715118408	-761.0733032226562	-0.0	-0.0	-0.0	-0.0	-0.0	-0.0	228312.3125	35282.4921875	-1275.513671875
0.485	-0.0	-0.0	-0.0	-0.0	-0.0	-0.0	-3.532878398895264	-7.286516189575195	-759.620361328125	-0.0	-0.0	-0.0	-0.0	-0.0	-0.0	227568.453125	35092.50390625	-1147.288330078125
0.4855	-0.0	-0.0	-0.0	-0.0	-0.0	-0.0	-3.2536301612854004	-7.45918607711792	-757.4910888671875	-0.0	-0.0	-0.0	-0.0	-0.0	-0.0	226942.59375	34948.375	-1003.4657592773438
0.486	-0.0	-0.0	-0.0	-0.0	-0.0	-0.0	-2.479280710220337	-7.398091316223144	-755.5640869140625	-0.0	-0.0	-0.0	-0.0	-0.0	-0.0	226495.765625	35016.33203125	-846.7496337890625
0.4865	-0.0	-0.0	-0.0	-0.0	-0.0	-0.0	-2.6498513221740723	-7.283278942108154	-755.1856079101562	-0.0	-0.0	-0.0	-0.0	-0.0	-0.0	225864.203125	34938.234375	-827.6435546875
0.487	-0.0	-0.0	-0.0	-0.0	-0.0	-0.0	-2.595922470092773	-7.318160057067871	-755.3143310546875	-0.0	-0.0	-0.0	-0.0	-0.0	-0.0	225485.171875	34918.375	-812.3753051757812
0.4875	-0.0	-0.0	-0.0	-0.0	-0.0	-0.0	-2.393247127532959	-7.299478530883789	-755.816650390625	-0.0	-0.0	-0.0	-0.0	-0.0	-0.0	225435.65625	34998.41015625	-953.780517578125
0.488	-0.0	-0.0	-0.0	-0.0	-0.0	-0.0	-3.083597183227539	-6.906704425811768	-753.818359375	-0.0	-0.0	-0.0	-0.0	-0.0	-0.0	225426.515625	35156.984375	-1094.40087890625
0.4885	-0.0	-0.0	-0.0	-0.0	-0.0	-0.0	-3.477367162704468	-6.934961795806885	-755.804931640625	-0.0	-0.0	-0.0	-0.0	-0.0	-0.0	225323.875	35215.40625	-1369.3385009765625
0.489	-0.0	-0.0	-0.0	-0.0	-0.0	-0.0	-3.862127304077149	-6.6470136642456055	-755.2149658203125	-0.0	-0.0	-0.0	-0.0	-0.0	-0.0	225156.96875	35442.29296875	-1485.1334228515625
0.4895	-0.0	-0.0	-0.0	-0.0	-0.0	-0.0	-3.9415905475616455	-6.443584442138672	-754.6797485351562	-0.0	-0.0	-0.0	-0.0	-0.0	-0.0	225175.625	35380.48828125	-1583.7301025390625
0.49	-0.0	-0.0	-0.0	-0.0	-0.0	-0.0	-4.013482570648193	-6.228034019470215	-755.2149658203125	-0.0	-0.0	-0.0	-0.0	-0.0	-0.0	225141.75	35322.7265625	-1725.8607177734375
0.4905	-0.0	-0.0	-0.0	-0.0	-0.0	-0.0	-4.352207183837891	-5.906199932098389	-753.834716796875	-0.0	-0.0	-0.0	-0.0	-0.0	-0.0	224565.84375	35599.3984375	-1870.6324462890625
0.491	-0.0	-0.0	-0.0	-0.0	-0.0	-0.0	-4.647615432739258	-5.477030754089356	-752.3790893554688	-0.0	-0.0	-0.0	-0.0	-0.0	-0.0	224233.5625	35783.0078125	-1996.6112060546875
0.4915	-0.0	-0.0	-0.0	-0.0	-0.0	-0.0	-4.774146556854248	-4.663432121276856	-752.2315673828125	-0.0	-0.0	-0.0	-0.0	-0.0	-0.0	223803.59375	35942.5234375	-2032.7698974609373
0.492	-0.0	-0.0	-0.0	-0.0	-0.0	-0.0	-4.323383331298828	-4.706073760986328	-751.558837890625	-0.0	-0.0	-0.0	-0.0	-0.0	-0.0	223571.5	36092.16015625	-2102.5771484375
0.4925	-0.0	-0.0	-0.0	-0.0	-0.0	-0.0	-4.591884613037109	-4.233193874359131	-750.435791015625	-0.0	-0.0	-0.0	-0.0	-0.0	-0.0	223344.015625	35950.9296875	-2129.307861328125
0.493	-0.0	-0.0	-0.0	-0.0	-0.0	-0.0	-5.013476848602295	-3.88679838180542	-750.0610961914062	-0.0	-0.0	-0.0	-0.0	-0.0	-0.0	223275.9375	36015.87890625	-2240.988037109375
0.4935	-0.0	-0.0	-0.0	-0.0	-0.0	-0.0	-4.984779357910156	-3.489232301712036	-750.153076171875	-0.0	-0.0	-0.0	-0.0	-0.0	-0.0	223030.890625	36280.05859375	-2217.897705078125
0.494	-0.0	-0.0	-0.0	-0.0	-0.0	-0.0	-5.233936309814453	-3.091259002685547	-749.5420532226562	-0.0	-0.0	-0.0	-0.0	-0.0	-0.0	222901.390625	36360.54296875	-2266.048583984375
0.4945	-0.0	-0.0	-0.0	-0.0	-0.0	-0.0	-5.538774013519287	-2.997481107711792	-749.2348022460938	-0.0	-0.0	-0.0	-0.0	-0.0	-0.0	222566.046875	36394.25390625	-2435.256591796875
0.495	-0.0	-0.0	-0.0	-0.0	-0.0	-0.0	-5.855019092559815	-3.07997989654541	-749.0616455078125	-0.0	-0.0	-0.0	-0.0	-0.0	-0.0	222504.203125	36638.61328125	-2500.49267578125
0.4955	-0.0	-0.0	-0.0	-0.0	-0.0	-0.0	-5.755181312561035	-3.1630702018737797	-749.0175170898438	-0.0	-0.0	-0.0	-0.0	-0.0	-0.0	222690.28125	36567.84765625	-2565.276611328125
0.496	-0.0	-0.0	-0.0	-0.0	-0.0	-0.0	-6.364945411682129	-3.1795806884765625	-749.7160034179688	-0.0	-0.0	-0.0	-0.0	-0.0	-0.0	222394.625	36690.65234375	-2667.592529296875
0.4965	-0.0	-0.0	-0.0	-0.0	-0.0	-0.0	-6.060275077819824	-3.074821949005127	-749.0394287109375	-0.0	-0.0	-0.0	-0.0	-0.0	-0.0	222689.046875	36685.7265625	-2598.890380859375
0.497	-0.0	-0.0	-0.0	-0.0	-0.0	-0.0	-6.486696243286133	-3.410890579223633	-749.7164306640625	-0.0	-0.0	-0.0	-0.0	-0.0	-0.0	222885.71875	36785.921875	-2608.440673828125
0.4975	-0.0	-0.0	-0.0	-0.0	-0.0	-0.0	-6.746808052062988	-3.548077344894409	-749.6743774414062	-0.0	-0.0	-0.0	-0.0	-0.0	-0.0	222995.78125	36818.8515625	-2718.177978515625
0.498	-0.0	-0.0	-0.0	-0.0	-0.0	-0.0	-6.720654010772705	-3.158308744430542	-750.7643432617188	-0.0	-0.0	-0.0	-0.0	-0.0	-0.0	223335.9375	36845.3359375	-2771.48193359375
0.4985	-0.0	-0.0	-0.0	-0.0	-0.0	-0.0	-7.135892391204834	-3.4270803928375244	-751.877197265625	-0.0	-0.0	-0.0	-0.0	-0.0	-0.0	223469.765625	37109.5390625	-2666.52294921875
0.499	-0.0	-0.0	-0.0	-0.0	-0.0	-0.0	-7.217832565307617	-3.421994209289551	-752.85986328125	-0.0	-0.0	-0.0	-0.0	-0.0	-0.0	223894.421875	37008.62109375	-2838.623046875
0.4995	-0.0	-0.0	-0.0	-0.0	-0.0	-0.0	-7.402628421783447	-3.53149938583374	-754.5501708984375	-0.0	-0.0	-0.0	-0.0	-0.0	-0.0	223969.609375	36889.67578125	-2894.78271484375
0.5	-0.0	-0.0	-0.0	-0.0	-0.0	-0.0	-7.453815460205078	-3.1138644218444824	-754.7681274414062	-0.0	-0.0	-0.0	-0.0	-0.0	-0.0	223667.359375	37199.17578125	-2891.096435546875
0.5005000000000001	-0.0	-0.0	-0.0	-0.0	-0.0	-0.0	-7.5574631690979	-3.7011120319366455	-754.7965087890625	-0.0	-0.0	-0.0	-0.0	-0.0	-0.0	224089.71875	37186.75	-2954.43896484375
0.501	-0.0	-0.0	-0.0	-0.0	-0.0	-0.0	-7.7064104080200195	-3.807859897613525	-755.3499755859375	-0.0	-0.0	-0.0	-0.0	-0.0	-0.0	223918.828125	37068.203125	-2972.430419921875
0.5015000000000001	-0.0	-0.0	-0.0	-0.0	-0.0	-0.0	-7.773669242858887	-4.129086494445801	-756.208251953125	-0.0	-0.0	-0.0	-0.0	-0.0	-0.0	223748.640625	37096.09375	-2984.4140625
0.502	-0.0	-0.0	-0.0	-0.0	-0.0	-0.0	-7.294232368469238	-4.079698085784912	-754.7872314453125	-0.0	-0.0	-0.0	-0.0	-0.0	-0.0	223800.25	36902.26171875	-2898.96484375
0.5025000000000001	-0.0	-0.0	-0.0	-0.0	-0.0	-0.0	-7.216003894805908	-4.324525356292725	-754.70751953125	-0.0	-0.0	-0.0	-0.0	-0.0	-0.0	223909.5625	36851.09375	-2783.39306640625
0.503	-0.0	-0.0	-0.0	-0.0	-0.0	-0.0	-6.994892120361328	-4.646720886230469	-755.2147216796875	-0.0	-0.0	-0.0	-0.0	-0.0	-0.0	223815.84375	36540.8203125	-2709.429443359375
0.5035000000000001	-0.0	-0.0	-0.0	-0.0	-0.0	-0.0	-7.123914241790772	-4.902775764465332	-754.5966186523438	-0.0	-0.0	-0.0	-0.0	-0.0	-0.0	223474.234375	36362.7734375	-2681.194091796875
0.504	-0.0	-0.0	-0.0	-0.0	-0.0	-0.0	-6.522244930267334	-5.206992149353027	-753.6358642578125	-0.0	-0.0	-0.0	-0.0	-0.0	-0.0	223353.46875	36216.1875	-2491.328857421875
0.5045000000000001	-0.0	-0.0	-0.0	-0.0	-0.0	-0.0	-7.026134967803955	-4.951810359954834	-754.0264282226562	-0.0	-0.0	-0.0	-0.0	-0.0	-0.0	223184.46875	36206.734375	-2631.89306640625
0.505	-0.0	-0.0	-0.0	-0.0	-0.0	-0.0	-7.185574531555176	-4.934420585632324	-752.899658203125	-0.0	-0.0	-0.0	-0.0	-0.0	-0.0	223484.15625	35964.671875	-2724.515869140625
0.5055000000000001	-0.0	-0.0	-0.0	-0.0	-0.0	-0.0	-7.355967044830322	-4.770572185516357	-754.5580444335938	-0.0	-0.0	-0.0	-0.0	-0.0	-0.0	223470.171875	35819.51953125	-2806.592041015625
0.506	-0.0	-0.0	-0.0	-0.0	-0.0	-0.0	-7.423439502716064	-4.3694987297058105	-753.4154663085938	-0.0	-0.0	-0.0	-0.0	-0.0	-0.0	223651.34375	35676.33984375	-2794.80908203125
0.5065000000000001	-0.0	-0.0	-0.0	-0.0	-0.0	-0.0	-7.787667751312256	-4.043998718261719	-754.0621948242188	-0.0	-0.0	-0.0	-0.0	-0.0	-0.0	223740.203125	35743.9296875	-2831.38818359375
0.507	-0.0	-0.0	-0.0	-0.0	-0.0	-0.0	-7.92787504196167	-3.5328993797302246	-753.7364501953125	-0.0	-0.0	-0.0	-0.0	-0.0	-0.0	223893.703125	35521.20703125	-2930.562744140625
0.5075000000000001	-0.0	-0.0	-0.0	-0.0	-0.0	-0.0	-7.722067832946777	-3.446195363998413	-753.88134765625	-0.0	-0.0	-0.0	-0.0	-0.0	-0.0	223966.0	35443.59375	-2926.882568359375
0.508	-0.0	-0.0	-0.0	-0.0	-0.0	-0.0	-7.481251239776611	-3.285581588745117	-752.7708740234375	-0.0	-0.0	-0.0	-0.0	-0.0	-0.0	223890.234375	35223.78125	-3016.069580078125
0.5085000000000001	-0.0	-0.0	-0.0	-0.0	-0.0	-0.0	-7.880366802215576	-2.752591133117676	-753.713623046875	-0.0	-0.0	-0.0	-0.0	-0.0	-0.0	223742.65625	35225.21484375	-2955.913330078125
0.509	-0.0	-0.0	-0.0	-0.0	-0.0	-0.0	-7.883455753326416	-2.566890239715576	-752.851806640625	-0.0	-0.0	-0.0	-0.0	-0.0	-0.0	223775.828125	34992.08984375	-2930.005615234375
0.5095000000000001	-0.0	-0.0	-0.0	-0.0	-0.0	-0.0	-7.978921890258789	-2.63781213760376	-752.8451538085938	-0.0	-0.0	-0.0	-0.0	-0.0	-0.0	223338.125	34931.87109375	-3002.208251953125
0.51	-0.0	-0.0	-0.0	-0.0	-0.0	-0.0	-8.001079559326172	-2.673413038253784	-751.025146484375	-0.0	-0.0	-0.0	-0.0	-0.0	-0.0	222979.484375	34698.62109375	-2996.716552734375
0.5105000000000001	-0.0	-0.0	-0.0	-0.0	-0.0	-0.0	-7.790325164794922	-2.8196234703063965	-748.7056884765625	-0.0	-0.0	-0.0	-0.0	-0.0	-0.0	222658.25	34704.7578125	-2990.3154296875
0.511	-0.0	-0.0	-0.0	-0.0	-0.0	-0.0	-7.84370231628418	-2.8906712532043457	-748.4068603515625	-0.0	-0.0	-0.0	-0.0	-0.0	-0.0	222236.71875	34468.7265625	-2878.510009765625
0.5115000000000001	-0.0	-0.0	-0.0	-0.0	-0.0	-0.0	-7.593052864074707	-3.3039140701293945	-747.50732421875	-0.0	-0.0	-0.0	-0.0	-0.0	-0.0	222014.453125	34273.9765625	-2899.9736328125
0.512	-0.0	-0.0	-0.0	-0.0	-0.0	-0.0	-7.701564311981201	-3.332184314727783	-748.0418701171875	-0.0	-0.0	-0.0	-0.0	-0.0	-0.0	221957.703125	34233.765625	-2934.98974609375
0.5125	-0.0	-0.0	-0.0	-0.0	-0.0	-0.0	-7.756271362304687	-3.795707941055298	-747.9625244140625	-0.0	-0.0	-0.0	-0.0	-0.0	-0.0	222125.953125	33950.47265625	-2883.192138671875
0.513	-0.0	-0.0	-0.0	-0.0	-0.0	-0.0	-7.766323089599609	-3.8903303146362314	-748.406494140625	-0.0	-0.0	-0.0	-0.0	-0.0	-0.0	222415.109375	33756.87109375	-2939.20751953125
0.5135	-0.0	-0.0	-0.0	-0.0	-0.0	-0.0	-7.94568395614624	-3.719411611557007	-750.8250122070312	-0.0	-0.0	-0.0	-0.0	-0.0	-0.0	222897.71875	33475.31640625	-3001.213134765625
0.514	-0.0	-0.0	-0.0	-0.0	-0.0	-0.0	-8.121358871459961	-3.524261474609375	-751.3402099609375	-0.0	-0.0	-0.0	-0.0	-0.0	-0.0	223332.625	33064.15625	-2973.607666015625
